<svg xmlns="http://www.w3.org/2000/svg" width="12.163" height="14"><path data-name="Icon simple-tiktok" d="M6.388.012C7.152 0 7.91.006 8.668 0a3.633 3.633 0 0 0 1.021 2.432 4.114 4.114 0 0 0 2.473 1.044v2.351a6.244 6.244 0 0 1-2.45-.566 7.207 7.207 0 0 1-.945-.542c-.006 1.7.006 3.407-.012 5.1a4.455 4.455 0 0 1-.787 2.3 4.346 4.346 0 0 1-3.447 1.875 4.253 4.253 0 0 1-2.38-.6 4.4 4.4 0 0 1-2.129-3.331 10.969 10.969 0 0 1-.006-.869A4.391 4.391 0 0 1 5.098 5.3c.012.863-.023 1.727-.023 2.59A2 2 0 0 0 2.52 9.123a2.314 2.314 0 0 0-.082.939 1.985 1.985 0 0 0 2.042 1.674 1.96 1.96 0 0 0 1.616-.936 1.346 1.346 0 0 0 .239-.618c.058-1.044.035-2.082.041-3.127.006-2.351-.006-4.7.012-7.041z" fill="#fff"/></svg>